<?xml version="1.0" encoding="utf-8"?>
<!-- Generator: Adobe Illustrator 22.1.0, SVG Export Plug-In . SVG Version: 6.00 Build 0)  -->
<svg version="1.1" id="Layer_1" xmlns="http://www.w3.org/2000/svg" xmlns:xlink="http://www.w3.org/1999/xlink" x="0px" y="0px"
	 viewBox="0 0 841.9 595.3" style="enable-background:new 0 0 841.9 595.3;" xml:space="preserve">
<style type="text/css">
	.st0{fill:#A3A3A2;}
	.st1{fill:#83A1B4;}
	.st2{fill:url(#SVGID_1_);}
	.st3{fill:url(#SVGID_2_);}
	.st4{fill:url(#SVGID_3_);}
	.st5{fill:#FFFFFF;}
	.st6{font-family:'Gotham-Medium';}
	.st7{font-size:11.0244px;}
</style>
<g>
	<path class="st0" d="M464.8,313.7h-87.1c-7.6,0-13.7-6.1-13.7-13.7l0,0c0-7.6,6.1-13.7,13.7-13.7h87.1c7.6,0,13.7,6.1,13.7,13.7
		l0,0C478.5,307.6,472.4,313.7,464.8,313.7z"/>
	<path class="st1" d="M464.8,313.7h-87.1c-7.6,0-13.7-6.1-13.7-13.7l0,0c0-7.6,6.1-13.7,13.7-13.7h87.1c7.6,0,13.7,6.1,13.7,13.7
		l0,0C478.5,307.6,472.4,313.7,464.8,313.7z"/>
	<linearGradient id="SVGID_1_" gradientUnits="userSpaceOnUse" x1="421.2657" y1="307.8494" x2="421.2657" y2="285.9035">
		<stop  offset="4.975120e-03" style="stop-color:#010101"/>
		<stop  offset="0.1463" style="stop-color:#050505"/>
		<stop  offset="0.279" style="stop-color:#111111"/>
		<stop  offset="0.4084" style="stop-color:#1F2020"/>
		<stop  offset="0.5357" style="stop-color:#303030"/>
		<stop  offset="0.6615" style="stop-color:#454544"/>
		<stop  offset="0.7862" style="stop-color:#61605F"/>
		<stop  offset="0.9076" style="stop-color:#858483"/>
		<stop  offset="1" style="stop-color:#A9A8A8"/>
	</linearGradient>
	<path class="st2" d="M462.8,298h-83.1c-2.9,0-5.3-2.4-5.3-5.3v0c0-2.9,2.4-5.3,5.3-5.3h83.1c2.9,0,5.3,2.4,5.3,5.3v0
		C468.1,295.6,465.7,298,462.8,298z"/>
	<linearGradient id="SVGID_2_" gradientUnits="userSpaceOnUse" x1="421.2657" y1="318.9734" x2="421.2657" y2="298.1234">
		<stop  offset="4.975120e-03" style="stop-color:#D4D4D4"/>
		<stop  offset="0.3249" style="stop-color:#D7D7D7"/>
		<stop  offset="0.6251" style="stop-color:#E2E2E1"/>
		<stop  offset="0.9167" style="stop-color:#F5F4F4"/>
		<stop  offset="1" style="stop-color:#FFFFFF"/>
	</linearGradient>
	<path class="st3" d="M466.2,311.9h-89.9c-1,0-1.9-0.8-1.9-1.9l0,0c0-1,0.8-1.9,1.9-1.9h89.9c1,0,1.9,0.8,1.9,1.9l0,0
		C468.1,311.1,467.2,311.9,466.2,311.9z"/>
	
		<radialGradient id="SVGID_3_" cx="149.0712" cy="8001.1499" r="34.4227" gradientTransform="matrix(1.1735 0 0 0.1735 246.6819 -1099.7881)" gradientUnits="userSpaceOnUse">
		<stop  offset="7.960200e-02" style="stop-color:#A9A8A8"/>
		<stop  offset="0.1987" style="stop-color:#8A8989"/>
		<stop  offset="0.4895" style="stop-color:#4F4F4E"/>
		<stop  offset="0.7282" style="stop-color:#2A2B2A"/>
		<stop  offset="0.9029" style="stop-color:#101110"/>
		<stop  offset="0.995" style="stop-color:#010101"/>
	</radialGradient>
	<ellipse class="st4" cx="421.6" cy="288.4" rx="40.4" ry="6"/>
</g>
<text transform="matrix(1 0 0 1 380.3389 303.7548)" class="st5 st6 st7">Anmäl intresse</text>
</svg>
